:FULLY-SPECIFIED
:DEGREES
3096
root 5.11603 16.4073 -1.41483 108.637 -93.6893 -93.1874
lowerback -6.21473 -0.0108074 -2.6086
upperback -3.9795 0.00590103 -1.19811
thorax -0.617823 -0.0112812 0.232526
lowerneck -14.496 -1.97775 1.43643
upperneck 17.8311 -3.26712 0.455248
head 7.88712 -1.45887 -0.450778
rclavicle -2.18663e-015 2.5345e-015
rhumerus -33.4896 -3.33904 -83.643
rradius 37.971
rwrist 12.0033
rhand -25.3539 -4.96787
rfingers 7.12502
rthumb 1.16972 -34.9444
lclavicle -2.18663e-015 2.5345e-015
lhumerus -39.7277 -3.9118 85.8764
lradius 32.1338
lwrist -9.81879
lhand -36.3363 -4.19684
lfingers 7.12502
lthumb -9.43431 25.572
rfemur -28.8055 -4.00263 18.6028
rtibia 64.6859
rfoot -2.97373 -3.13669
rtoes -20.7889
lfemur -30.8243 -13.2758 -26.9559
ltibia 21.299
lfoot -4.45343 18.6645
ltoes -4.084
3097
root 5.11735 16.4017 -1.3996 104.437 -93.7904 -88.9423
lowerback -6.32181 -0.081799 -2.72531
upperback -3.95945 -0.0795563 -1.21958
thorax -0.536186 -0.0538266 0.27087
lowerneck -14.428 -1.93207 1.43639
upperneck 17.723 -3.19262 0.422305
head 7.83891 -1.42785 -0.451571
rclavicle -9.93923e-016 -8.44835e-015
rhumerus -33.6099 -3.49923 -83.7053
rradius 37.4349
rwrist 12.5299
rhand -25.2094 -5.05564
rfingers 7.12502
rthumb 1.30935 -35.0314
lclavicle -9.93923e-016 -8.44835e-015
lhumerus -39.2742 -4.51335 86.0228
lradius 32.3578
lwrist -9.69925
lhand -36.49 -4.15033
lfingers 7.12502
lthumb -9.58256 25.6117
rfemur -30.7322 -3.91068 18.2783
rtibia 66.8638
rfoot -3.6238 -3.86806
rtoes -19.7167
lfemur -30.481 -13.1413 -27.2967
ltibia 21.6611
lfoot -5.06013 18.9028
ltoes -4.44191
3098
root 5.11899 16.3948 -1.38441 100.794 -93.8937 -85.2717
lowerback -6.41442 -0.141638 -2.76915
upperback -3.94246 -0.154133 -1.25259
thorax -0.465697 -0.0921965 0.256939
lowerneck -14.3898 -1.87041 1.49898
upperneck 17.681 -3.1026 0.334568
head 7.81608 -1.39006 -0.480123
rclavicle -1.98785e-015 1.55797e-014
rhumerus -33.7402 -3.60176 -83.7571
rradius 36.8554
rwrist 13.198
rhand -25.3526 -5.13111
rfingers 7.12502
rthumb 1.17104 -35.1076
lclavicle -1.98785e-015 1.55797e-014
lhumerus -38.7611 -5.15428 86.1542
lradius 32.504
lwrist -9.5892
lhand -36.5787 -4.01642
lfingers 7.12502
lthumb -9.66818 25.7417
rfemur -32.5661 -3.81817 17.9975
rtibia 68.666
rfoot -4.13687 -4.53117
rtoes -19.4269
lfemur -30.1339 -12.9497 -27.6382
ltibia 22.0619
lfoot -5.73847 19.0769
ltoes -4.40102
3099
root 5.12025 16.3924 -1.37059 98.8207 -93.8774 -83.3032
lowerback -6.44156 -0.235083 -2.71419
upperback -3.95017 -0.281256 -1.22355
thorax -0.455412 -0.156785 0.248413
lowerneck -14.3429 -1.78378 1.57122
upperneck 17.6704 -2.98621 0.267329
head 7.80275 -1.33715 -0.500957
rclavicle 1.2921e-015 2.23633e-016
rhumerus -33.8927 -3.78493 -83.7556
rradius 36.1314
rwrist 14.0754
rhand -25.6009 -4.87212
rfingers 7.12502
rthumb 0.931227 -34.8498
lclavicle 1.2921e-015 2.23633e-016
lhumerus -38.2812 -5.73575 86.249
lradius 32.6258
lwrist -9.56368
lhand -36.5966 -3.97568
lfingers 7.12502
lthumb -9.68541 25.7816
rfemur -34.2306 -3.69331 17.9026
rtibia 70.0676
rfoot -4.99105 -5.26958
rtoes -18.2979
lfemur -29.7643 -12.883 -27.7948
ltibia 22.4448
lfoot -6.43564 19.276
ltoes -4.67614
3100
root 5.12533 16.3901 -1.3565 97.5415 -93.7982 -81.9673
lowerback -6.45364 -0.317086 -2.59587
upperback -4.01896 -0.400184 -1.15922
thorax -0.516798 -0.217497 0.241372
lowerneck -14.2467 -1.69376 1.61462
upperneck 17.6768 -2.86543 0.231329
head 7.78744 -1.28151 -0.505994
rclavicle 3.18055e-015 2.52953e-014
rhumerus -34.1692 -4.20761 -83.5833
rradius 35.5536
rwrist 14.9884
rhand -25.5833 -4.58511
rfingers 7.12502
rthumb 0.948173 -34.5627
lclavicle 3.18055e-015 2.52953e-014
lhumerus -37.8504 -6.18751 86.3333
lradius 32.6562
lwrist -10.0679
lhand -36.6633 -3.58102
lfingers 7.12502
lthumb -9.74985 26.1733
rfemur -35.8858 -3.48821 17.8877
rtibia 71.0831
rfoot -5.976 -5.95756
rtoes -17.1259
lfemur -29.4845 -12.7913 -27.8785
ltibia 22.8284
lfoot -7.08618 19.4372
ltoes -4.58599
3101
root 5.12927 16.3871 -1.34476 97.0857 -93.7204 -81.5532
lowerback -6.42455 -0.406209 -2.51552
upperback -4.02552 -0.523567 -1.07084
thorax -0.536396 -0.279116 0.280188
lowerneck -14.1897 -1.61361 1.62066
upperneck 17.6902 -2.7572 0.230261
head 7.7825 -1.23045 -0.4953
rclavicle 1.2921e-015 -4.42296e-015
rhumerus -34.5191 -4.77288 -83.2996
rradius 35.0989
rwrist 15.9747
rhand -25.6868 -4.37814
rfingers 7.12502
rthumb 0.848259 -34.3562
lclavicle 1.2921e-015 -4.42296e-015
lhumerus -37.3383 -6.64802 86.4757
lradius 32.65
lwrist -10.1616
lhand -36.7495 -3.61244
lfingers 7.12502
lthumb -9.83297 26.138
rfemur -37.3453 -3.23522 17.9041
rtibia 71.7623
rfoot -6.86336 -6.56947
rtoes -16.4519
lfemur -29.0928 -12.8023 -27.9428
ltibia 23.221
lfoot -7.75644 19.6487
ltoes -4.67428
3102
root 5.13423 16.3865 -1.33544 96.6412 -93.6191 -81.2396
lowerback -6.29025 -0.469216 -2.44534
upperback -4.00514 -0.612514 -0.974232
thorax -0.587042 -0.322212 0.336097
lowerneck -14.197 -1.52697 1.58922
upperneck 17.7591 -2.65344 0.323113
head 7.80941 -1.17419 -0.449219
rclavicle 9.93923e-016 4.17448e-015
rhumerus -34.7396 -5.11607 -83.0694
rradius 34.4208
rwrist 16.4818
rhand -25.9177 -4.3798
rfingers 7.12502
rthumb 0.625273 -34.3586
lclavicle 9.93923e-016 4.17448e-015
lhumerus -36.8084 -6.9971 86.5485
lradius 32.6912
lwrist -10.2916
lhand -36.6823 -3.70485
lfingers 7.12502
lthumb -9.76815 26.0486
rfemur -38.6025 -2.88969 17.9328
rtibia 72.0987
rfoot -7.72088 -7.02856
rtoes -15.556
lfemur -28.5648 -12.8251 -27.9826
ltibia 23.5665
lfoot -8.4154 19.8144
ltoes -5.04738
3103
root 5.14272 16.3799 -1.32585 95.6114 -93.5018 -80.2383
lowerback -6.24946 -0.52281 -2.36055
upperback -3.99607 -0.687619 -0.86067
thorax -0.597759 -0.359246 0.40136
lowerneck -14.2354 -1.41879 1.64797
upperneck 17.8097 -2.51928 0.31517
head 7.83317 -1.10685 -0.447939
rclavicle 6.55989e-015 1.10325e-014
rhumerus -35.0178 -5.83167 -82.6296
rradius 33.8561
rwrist 17.4911
rhand -25.826 -4.06534
rfingers 7.12502
rthumb 0.713755 -34.0439
lclavicle 6.55989e-015 1.10325e-014
lhumerus -36.2318 -7.21462 86.6097
lradius 32.6657
lwrist -10.7993
lhand -36.6348 -3.5402
lfingers 7.12502
lthumb -9.72234 26.2154
rfemur -39.9471 -2.43002 17.9648
rtibia 72.1323
rfoot -8.52831 -7.39582
rtoes -14.7018
lfemur -28.1566 -12.9037 -27.9663
ltibia 23.8821
lfoot -8.99525 20.1331
ltoes -5.20545
3104
root 5.15145 16.3733 -1.31987 95.9032 -93.4896 -80.6068
lowerback -6.14001 -0.620057 -2.43019
upperback -3.99077 -0.81556 -0.757512
thorax -0.647649 -0.419722 0.540357
lowerneck -14.3157 -1.29663 1.67827
upperneck 17.9525 -2.37175 0.345633
head 7.89613 -1.03085 -0.428952
rclavicle 2.78299e-015 1.03368e-014
rhumerus -35.3677 -6.43208 -82.2182
rradius 33.5017
rwrist 17.9888
rhand -25.6935 -4.10615
rfingers 7.12502
rthumb 0.841781 -34.0842
lclavicle 2.78299e-015 1.03368e-014
lhumerus -35.6981 -7.45771 86.7057
lradius 32.6684
lwrist -10.8781
lhand -36.6163 -3.51031
lfingers 7.12502
lthumb -9.70445 26.2461
rfemur -41.1158 -2.00894 17.9192
rtibia 71.8587
rfoot -9.20999 -7.72017
rtoes -14.3929
lfemur -27.6762 -13.025 -28.0677
ltibia 24.1607
lfoot -9.5939 20.3635
ltoes -5.24942
3105
root 5.15553 16.3707 -1.31033 95.5859 -93.3755 -80.4612
lowerback -5.99022 -0.669727 -2.31437
upperback -3.93787 -0.886905 -0.665465
thorax -0.673981 -0.454821 0.567638
lowerneck -14.3941 -1.18706 1.73025
upperneck 18.0437 -2.25072 0.407018
head 7.94177 -0.963034 -0.405513
rclavicle -2.38542e-015 2.04748e-014
rhumerus -35.6991 -7.12153 -81.7656
rradius 33.068
rwrist 18.5279
rhand -25.5713 -3.84384
rfingers 7.12502
rthumb 0.959835 -33.8214
lclavicle -2.38542e-015 2.04748e-014
lhumerus -35.1409 -7.6923 86.7592
lradius 32.6856
lwrist -11.0001
lhand -36.6107 -3.42046
lfingers 7.12502
lthumb -9.69907 26.3362
rfemur -42.0551 -1.4955 17.9305
rtibia 71.2551
rfoot -9.82209 -8.00821
rtoes -13.8332
lfemur -27.073 -13.2588 -28.0591
ltibia 24.4554
lfoot -10.2917 20.7563
ltoes -5.19503
3106
root 5.15985 16.369 -1.30078 94.646 -93.2714 -79.6777
lowerback -5.83669 -0.719569 -2.2218
upperback -3.9006 -0.958005 -0.554794
thorax -0.718047 -0.48916 0.627469
lowerneck -14.446 -1.05875 1.78264
upperneck 18.0933 -2.09371 0.428716
head 7.96853 -0.882246 -0.390606
rclavicle -4.37326e-015 -5.1684e-015
rhumerus -36.0331 -7.57744 -81.3742
rradius 32.7822
rwrist 18.4433
rhand -25.2601 -3.96077
rfingers 7.12502
rthumb 1.26032 -33.9368
lclavicle -4.37326e-015 -5.1684e-015
lhumerus -34.6099 -7.88026 86.8645
lradius 32.7611
lwrist -10.7223
lhand -36.5977 -3.53225
lfingers 7.12502
lthumb -9.68649 26.225
rfemur -42.885 -0.878374 17.9048
rtibia 70.346
rfoot -10.4811 -8.32606
rtoes -13.3575
lfemur -26.4657 -13.4686 -28.0798
ltibia 24.7221
lfoot -10.8792 21.1303
ltoes -4.82374
